<svg width="30" height="30" viewBox="0 0 30 30" fill="none" xmlns="http://www.w3.org/2000/svg">
<path fill-rule="evenodd" clip-rule="evenodd" d="M3.80007 2.86494C3.56535 2.78256 3.30752 2.79679 3.0833 2.90451C2.85908 3.01222 2.68683 3.2046 2.60444 3.43932C2.52206 3.67403 2.53629 3.93186 2.64401 4.15609C2.75173 4.38031 2.9441 4.55256 3.17882 4.63494L3.50507 4.74869C4.34007 5.04244 4.88882 5.23619 5.29257 5.43494C5.67132 5.62119 5.83757 5.77244 5.94757 5.93244C6.06007 6.09744 6.14757 6.32494 6.19757 6.77869C6.24757 7.25369 6.25007 7.87244 6.25007 8.79744V12.0499C6.25007 15.7274 6.32882 16.9399 7.41257 18.0824C8.49507 19.2249 10.2376 19.2249 13.7251 19.2249H20.3526C22.3038 19.2249 23.2801 19.2249 23.9688 18.6624C24.6588 18.0999 24.8563 17.1449 25.2501 15.2349L25.8751 12.2037C26.3088 10.0287 26.5251 8.94244 25.9701 8.22119C25.4151 7.49994 23.5201 7.49994 21.4138 7.49994H8.11507C8.10975 7.19184 8.09182 6.88408 8.06132 6.57744C7.99382 5.95619 7.84882 5.38994 7.49632 4.87494C7.14132 4.35494 6.66882 4.02244 6.11757 3.75119C5.60257 3.49869 4.94757 3.26869 4.17757 2.99744L3.80007 2.86494Z" fill="#222222"/>
<path d="M9.375 22.5C9.87228 22.5 10.3492 22.6975 10.7008 23.0492C11.0525 23.4008 11.25 23.8777 11.25 24.375C11.25 24.8723 11.0525 25.3492 10.7008 25.7008C10.3492 26.0525 9.87228 26.25 9.375 26.25C8.87772 26.25 8.40081 26.0525 8.04917 25.7008C7.69754 25.3492 7.5 24.8723 7.5 24.375C7.5 23.8777 7.69754 23.4008 8.04917 23.0492C8.40081 22.6975 8.87772 22.5 9.375 22.5ZM20.625 22.5C21.1223 22.5 21.5992 22.6975 21.9508 23.0492C22.3025 23.4008 22.5 23.8777 22.5 24.375C22.5 24.8723 22.3025 25.3492 21.9508 25.7008C21.5992 26.0525 21.1223 26.25 20.625 26.25C20.1277 26.25 19.6508 26.0525 19.2992 25.7008C18.9475 25.3492 18.75 24.8723 18.75 24.375C18.75 23.8777 18.9475 23.4008 19.2992 23.0492C19.6508 22.6975 20.1277 22.5 20.625 22.5Z" fill="#222222"/>
<path d="M15.75 11.25V13.5M15.75 15.75V13.5M15.75 13.5H18M15.75 13.5H13.5" stroke="white" stroke-width="1.7" stroke-linecap="round"/>
</svg>
