<svg width="25" height="25" viewBox="0 0 25 25" fill="none" xmlns="http://www.w3.org/2000/svg">
<path fill-rule="evenodd" clip-rule="evenodd" d="M14.0312 5.69792C14.1777 5.55161 14.3763 5.46944 14.5833 5.46944C14.7903 5.46944 14.9889 5.55161 15.1354 5.69792L21.3854 11.9479C21.5317 12.0944 21.6139 12.293 21.6139 12.5C21.6139 12.707 21.5317 12.9056 21.3854 13.0521L15.1354 19.3021C15.0639 19.3788 14.9776 19.4404 14.8818 19.4831C14.7859 19.5258 14.6825 19.5488 14.5776 19.5506C14.4727 19.5525 14.3685 19.5332 14.2712 19.4939C14.1739 19.4546 14.0856 19.3961 14.0114 19.3219C13.9372 19.2477 13.8787 19.1594 13.8394 19.0621C13.8001 18.9648 13.7808 18.8606 13.7827 18.7557C13.7845 18.6508 13.8075 18.5474 13.8502 18.4515C13.8929 18.3557 13.9545 18.2694 14.0312 18.1979L18.9479 13.2812H4.16663C3.95943 13.2812 3.76071 13.1989 3.6142 13.0524C3.46769 12.9059 3.38538 12.7072 3.38538 12.5C3.38538 12.2928 3.46769 12.0941 3.6142 11.9476C3.76071 11.8011 3.95943 11.7187 4.16663 11.7187H18.9479L14.0312 6.80208C13.8849 6.6556 13.8027 6.45703 13.8027 6.25C13.8027 6.04297 13.8849 5.8444 14.0312 5.69792Z" fill="#EDEDED"/>
</svg>
