<svg width="25" height="25" viewBox="0 0 25 25" fill="none" xmlns="http://www.w3.org/2000/svg">
<path fill-rule="evenodd" clip-rule="evenodd" d="M10.9688 5.69792C10.8223 5.55161 10.6237 5.46944 10.4167 5.46944C10.2097 5.46944 10.0111 5.55161 9.86462 5.69792L3.61462 11.9479C3.46832 12.0944 3.38615 12.293 3.38615 12.5C3.38615 12.707 3.46832 12.9056 3.61462 13.0521L9.86462 19.3021C9.93615 19.3788 10.0224 19.4404 10.1182 19.4831C10.2141 19.5258 10.3175 19.5488 10.4224 19.5506C10.5273 19.5525 10.6315 19.5332 10.7288 19.4939C10.8261 19.4546 10.9144 19.3961 10.9886 19.3219C11.0628 19.2477 11.1213 19.1594 11.1606 19.0621C11.1999 18.9648 11.2192 18.8606 11.2173 18.7557C11.2155 18.6508 11.1925 18.5474 11.1498 18.4515C11.1071 18.3557 11.0455 18.2694 10.9688 18.1979L6.05212 13.2812H20.8334C21.0406 13.2812 21.2393 13.1989 21.3858 13.0524C21.5323 12.9059 21.6146 12.7072 21.6146 12.5C21.6146 12.2928 21.5323 12.0941 21.3858 11.9476C21.2393 11.8011 21.0406 11.7187 20.8334 11.7187H6.05212L10.9688 6.80208C11.1151 6.6556 11.1973 6.45703 11.1973 6.25C11.1973 6.04297 11.1151 5.8444 10.9688 5.69792Z" fill="#EDEDED"/>
</svg>
