<svg width="21" height="20" viewBox="0 0 21 20" fill="none" xmlns="http://www.w3.org/2000/svg">
<path fill-rule="evenodd" clip-rule="evenodd" d="M3.0333 1.91004C2.87682 1.85512 2.70493 1.86461 2.55545 1.93642C2.40597 2.00823 2.29114 2.13648 2.23621 2.29296C2.18129 2.44944 2.19078 2.62132 2.26259 2.77081C2.3344 2.92029 2.46265 3.03512 2.61913 3.09004L2.83663 3.16588C3.3933 3.36171 3.75913 3.49088 4.0283 3.62338C4.2808 3.74754 4.39163 3.84838 4.46496 3.95504C4.53996 4.06504 4.5983 4.21671 4.63163 4.51921C4.66496 4.83588 4.66663 5.24838 4.66663 5.86504V8.03338C4.66663 10.485 4.71913 11.2934 5.44163 12.055C6.1633 12.8167 7.32496 12.8167 9.64996 12.8167H14.0683C15.3691 12.8167 16.02 12.8167 16.4791 12.4417C16.9391 12.0667 17.0708 11.43 17.3333 10.1567L17.75 8.13588C18.0391 6.68588 18.1833 5.96171 17.8133 5.48088C17.4433 5.00004 16.18 5.00004 14.7758 5.00004H5.90996C5.90642 4.79464 5.89446 4.58947 5.87413 4.38504C5.82913 3.97088 5.73246 3.59338 5.49746 3.25004C5.2608 2.90338 4.9458 2.68171 4.5783 2.50088C4.23496 2.33254 3.7983 2.17921 3.28496 1.99838L3.0333 1.91004Z" fill="#EDEDED"/>
<path d="M6.75 15C7.08152 15 7.39946 15.1317 7.63388 15.3661C7.8683 15.6005 8 15.9185 8 16.25C8 16.5815 7.8683 16.8995 7.63388 17.1339C7.39946 17.3683 7.08152 17.5 6.75 17.5C6.41848 17.5 6.10054 17.3683 5.86612 17.1339C5.6317 16.8995 5.5 16.5815 5.5 16.25C5.5 15.9185 5.6317 15.6005 5.86612 15.3661C6.10054 15.1317 6.41848 15 6.75 15ZM14.25 15C14.5815 15 14.8995 15.1317 15.1339 15.3661C15.3683 15.6005 15.5 15.9185 15.5 16.25C15.5 16.5815 15.3683 16.8995 15.1339 17.1339C14.8995 17.3683 14.5815 17.5 14.25 17.5C13.9185 17.5 13.6005 17.3683 13.3661 17.1339C13.1317 16.8995 13 16.5815 13 16.25C13 15.9185 13.1317 15.6005 13.3661 15.3661C13.6005 15.1317 13.9185 15 14.25 15Z" fill="#EDEDED"/>
</svg>
