<svg width="19" height="15" viewBox="0 0 19 15" fill="none" xmlns="http://www.w3.org/2000/svg">
<path d="M2.93741 14.5393H16.0624C17.8117 14.5393 18.691 13.6775 18.691 11.9532V3.05533C18.691 1.33104 17.8117 0.460327 16.0624 0.460327H2.93741C1.18812 0.460327 0.308838 1.33104 0.308838 3.05533V11.9532C0.308838 13.6775 1.18777 14.5393 2.93741 14.5393ZM1.6567 3.13104C1.6567 2.26033 2.12562 1.80854 2.96241 1.80854H16.0456C16.8742 1.80854 17.3431 2.26033 17.3431 3.13104V3.8339H1.6567V3.13104ZM2.96241 13.1925C2.12527 13.1925 1.6567 12.7485 1.6567 11.8782V5.7339H17.3431V11.8778C17.3431 12.7482 16.8742 13.1921 16.0456 13.1921L2.96241 13.1925ZM3.92491 10.7143H5.97598C6.46991 10.7143 6.79634 10.3878 6.79634 9.91068V8.36211C6.79634 7.89354 6.46991 7.55854 5.97598 7.55854H3.92491C3.43098 7.55854 3.10455 7.89354 3.10455 8.36211V9.91068C3.10455 10.3878 3.43098 10.7143 3.92491 10.7143Z" fill="#DDDEDF"/>
</svg>
