<svg width="60" height="60" viewBox="0 0 60 60" fill="none" xmlns="http://www.w3.org/2000/svg">
<path d="M30 42.5C30.7083 42.5 31.3025 42.26 31.7825 41.78C32.2625 41.3 32.5017 40.7067 32.5 40C32.4983 39.2933 32.2583 38.7 31.78 38.22C31.3017 37.74 30.7083 37.5 30 37.5C29.2917 37.5 28.6983 37.74 28.22 38.22C27.7417 38.7 27.5017 39.2933 27.5 40C27.4983 40.7067 27.7383 41.3008 28.22 41.7825C28.7017 42.2642 29.295 42.5033 30 42.5ZM27.5 32.5H32.5V17.5H27.5V32.5ZM30 55C26.5417 55 23.2917 54.3433 20.25 53.03C17.2083 51.7167 14.5625 49.9358 12.3125 47.6875C10.0625 45.4392 8.28167 42.7933 6.97 39.75C5.65834 36.7067 5.00167 33.4567 5 30C4.99834 26.5433 5.655 23.2933 6.97 20.25C8.285 17.2067 10.0658 14.5608 12.3125 12.3125C14.5592 10.0642 17.205 8.28333 20.25 6.97C23.295 5.65667 26.545 5 30 5C33.455 5 36.705 5.65667 39.75 6.97C42.795 8.28333 45.4408 10.0642 47.6875 12.3125C49.9342 14.5608 51.7158 17.2067 53.0325 20.25C54.3492 23.2933 55.005 26.5433 55 30C54.995 33.4567 54.3383 36.7067 53.03 39.75C51.7217 42.7933 49.9408 45.4392 47.6875 47.6875C45.4342 49.9358 42.7883 51.7175 39.75 53.0325C36.7117 54.3475 33.4617 55.0033 30 55Z" fill="#A26C6C"/>
</svg>
