<svg width="144" height="115" viewBox="0 0 144 115" fill="none" xmlns="http://www.w3.org/2000/svg">
<path d="M14.4 0C10.5809 0 6.91819 1.39071 4.21766 3.86619C1.51714 6.34167 0 9.69914 0 13.2L0 101.2C0 104.701 1.51714 108.058 4.21766 110.534C6.91819 113.009 10.5809 114.4 14.4 114.4H129.6C133.419 114.4 137.082 113.009 139.782 110.534C142.483 108.058 144 104.701 144 101.2V30.8C144 27.2991 142.483 23.9417 139.782 21.4662C137.082 18.9907 133.419 17.6 129.6 17.6H73.9872L54.7872 0H14.4Z" fill="#323030"/>
</svg>
