<svg width="15" height="15" viewBox="0 0 15 15" fill="none" xmlns="http://www.w3.org/2000/svg">
<path d="M7.46875 11.25C7.6875 11.25 7.8725 11.1744 8.02375 11.0231C8.175 10.8719 8.25042 10.6871 8.25 10.4688C8.25 10.25 8.17458 10.065 8.02375 9.91375C7.87292 9.7625 7.68792 9.68708 7.46875 9.6875C7.25 9.6875 7.06521 9.76313 6.91438 9.91438C6.76354 10.0656 6.68792 10.2504 6.6875 10.4688C6.6875 10.6875 6.76313 10.8725 6.91438 11.0238C7.06563 11.175 7.25042 11.2504 7.46875 11.25ZM6.90625 8.84375H8.0625C8.0625 8.5 8.10167 8.22917 8.18 8.03125C8.25833 7.83333 8.47958 7.5625 8.84375 7.21875C9.11458 6.94792 9.32813 6.69 9.48438 6.445C9.64063 6.2 9.71875 5.90583 9.71875 5.5625C9.71875 4.97917 9.50521 4.53125 9.07813 4.21875C8.65104 3.90625 8.14583 3.75 7.5625 3.75C6.96875 3.75 6.48708 3.90625 6.1175 4.21875C5.74792 4.53125 5.49 4.90625 5.34375 5.34375L6.375 5.75C6.42708 5.5625 6.54438 5.35938 6.72688 5.14063C6.90938 4.92188 7.18792 4.8125 7.5625 4.8125C7.89583 4.8125 8.14583 4.90375 8.3125 5.08625C8.47917 5.26875 8.5625 5.46917 8.5625 5.6875C8.5625 5.89583 8.5 6.09125 8.375 6.27375C8.25 6.45625 8.09375 6.62542 7.90625 6.78125C7.44792 7.1875 7.16667 7.49479 7.0625 7.70313C6.95833 7.91146 6.90625 8.29167 6.90625 8.84375ZM7.5 13.75C6.63542 13.75 5.82292 13.586 5.0625 13.2581C4.30208 12.9302 3.64063 12.4848 3.07813 11.9219C2.51563 11.3594 2.07042 10.6979 1.7425 9.9375C1.41458 9.17708 1.25042 8.36458 1.25 7.5C1.25 6.63542 1.41417 5.82292 1.7425 5.0625C2.07083 4.30208 2.51604 3.64063 3.07813 3.07813C3.64063 2.51563 4.30208 2.07042 5.0625 1.7425C5.82292 1.41458 6.63542 1.25042 7.5 1.25C8.36458 1.25 9.17708 1.41417 9.9375 1.7425C10.6979 2.07083 11.3594 2.51604 11.9219 3.07813C12.4844 3.64063 12.9298 4.30208 13.2581 5.0625C13.5865 5.82292 13.7504 6.63542 13.75 7.5C13.75 8.36458 13.5858 9.17708 13.2575 9.9375C12.9292 10.6979 12.484 11.3594 11.9219 11.9219C11.3594 12.4844 10.6979 12.9298 9.9375 13.2581C9.17708 13.5865 8.36458 13.7504 7.5 13.75ZM7.5 12.5C8.89583 12.5 10.0781 12.0156 11.0469 11.0469C12.0156 10.0781 12.5 8.89583 12.5 7.5C12.5 6.10417 12.0156 4.92188 11.0469 3.95313C10.0781 2.98438 8.89583 2.5 7.5 2.5C6.10417 2.5 4.92188 2.98438 3.95313 3.95313C2.98438 4.92188 2.5 6.10417 2.5 7.5C2.5 8.89583 2.98438 10.0781 3.95313 11.0469C4.92188 12.0156 6.10417 12.5 7.5 12.5Z" fill="#EDEDED"/>
</svg>
