<svg width="26" height="25" viewBox="0 0 26 25" fill="none" xmlns="http://www.w3.org/2000/svg">
<path d="M8.62504 2.08325H17.375C20.7084 2.08325 23.4167 4.79159 23.4167 8.12492V16.8749C23.4167 18.4773 22.7802 20.014 21.6471 21.147C20.5141 22.2801 18.9774 22.9166 17.375 22.9166H8.62504C5.29171 22.9166 2.58337 20.2083 2.58337 16.8749V8.12492C2.58337 6.52257 3.21991 4.98585 4.35294 3.85282C5.48597 2.71978 7.02269 2.08325 8.62504 2.08325ZM8.41671 4.16659C7.42215 4.16659 6.46832 4.56167 5.76506 5.26493C5.0618 5.9682 4.66671 6.92202 4.66671 7.91658V17.0833C4.66671 19.1562 6.34379 20.8333 8.41671 20.8333H17.5834C18.5779 20.8333 19.5318 20.4382 20.235 19.7349C20.9383 19.0316 21.3334 18.0778 21.3334 17.0833V7.91658C21.3334 5.84367 19.6563 4.16659 17.5834 4.16659H8.41671ZM18.4688 5.72909C18.8141 5.72909 19.1453 5.86627 19.3895 6.11046C19.6337 6.35464 19.7709 6.68583 19.7709 7.03117C19.7709 7.3765 19.6337 7.70769 19.3895 7.95188C19.1453 8.19607 18.8141 8.33325 18.4688 8.33325C18.1235 8.33325 17.7923 8.19607 17.5481 7.95188C17.3039 7.70769 17.1667 7.3765 17.1667 7.03117C17.1667 6.68583 17.3039 6.35464 17.5481 6.11046C17.7923 5.86627 18.1235 5.72909 18.4688 5.72909ZM13 7.29158C14.3814 7.29158 15.7061 7.84032 16.6829 8.81707C17.6596 9.79382 18.2084 11.1186 18.2084 12.4999C18.2084 13.8813 17.6596 15.206 16.6829 16.1828C15.7061 17.1595 14.3814 17.7083 13 17.7083C11.6187 17.7083 10.2939 17.1595 9.31719 16.1828C8.34044 15.206 7.79171 13.8813 7.79171 12.4999C7.79171 11.1186 8.34044 9.79382 9.31719 8.81707C10.2939 7.84032 11.6187 7.29158 13 7.29158ZM13 9.37492C12.1712 9.37492 11.3764 9.70416 10.7903 10.2902C10.2043 10.8763 9.87504 11.6711 9.87504 12.4999C9.87504 13.3287 10.2043 14.1236 10.7903 14.7096C11.3764 15.2957 12.1712 15.6249 13 15.6249C13.8288 15.6249 14.6237 15.2957 15.2097 14.7096C15.7958 14.1236 16.125 13.3287 16.125 12.4999C16.125 11.6711 15.7958 10.8763 15.2097 10.2902C14.6237 9.70416 13.8288 9.37492 13 9.37492Z" fill="#EDEDED"/>
</svg>
