<svg width="40" height="40" viewBox="0 0 40 40" fill="none" xmlns="http://www.w3.org/2000/svg">
<path d="M5 11.6666C5 10.7825 5.35119 9.93468 5.97631 9.30956C6.60143 8.68444 7.44928 8.33325 8.33333 8.33325H31.6667C32.5507 8.33325 33.3986 8.68444 34.0237 9.30956C34.6488 9.93468 35 10.7825 35 11.6666V28.3333C35 29.2173 34.6488 30.0652 34.0237 30.6903C33.3986 31.3154 32.5507 31.6666 31.6667 31.6666H8.33333C7.44928 31.6666 6.60143 31.3154 5.97631 30.6903C5.35119 30.0652 5 29.2173 5 28.3333V11.6666Z" stroke="#DDDEDF" stroke-width="3" stroke-linecap="round" stroke-linejoin="round"/>
<path d="M5 11.6665L20 21.6665L35 11.6665" stroke="#DDDEDF" stroke-width="3" stroke-linecap="round" stroke-linejoin="round"/>
</svg>
