<svg width="26" height="25" viewBox="0 0 26 25" fill="none" xmlns="http://www.w3.org/2000/svg">
<g clip-path="url(#clip0_791_660)">
<path d="M13 2.08325C18.7531 2.08325 23.4167 6.74679 23.4167 12.4999C23.4167 18.253 18.7531 22.9166 13 22.9166C11.227 22.9192 9.48299 22.4673 7.93436 21.6041L7.61665 21.4187L4.45832 22.3478C4.28645 22.3985 4.10449 22.4044 3.92969 22.365C3.75489 22.3256 3.59305 22.2423 3.45951 22.1228C3.32596 22.0033 3.22514 21.8517 3.1666 21.6824C3.10805 21.513 3.09373 21.3316 3.12499 21.1551L3.15207 21.0416L4.08124 17.8833C3.0989 16.2596 2.5808 14.3976 2.58332 12.4999C2.58332 6.74679 7.24686 2.08325 13 2.08325ZM13 4.16659C11.5079 4.16631 10.0432 4.56664 8.75867 5.32577C7.47416 6.08489 6.41703 7.17496 5.69766 8.48215C4.97829 9.78934 4.62308 11.2657 4.66911 12.757C4.71515 14.2484 5.16074 15.7 5.95936 16.9603C6.16561 17.2853 6.25416 17.6853 6.18436 18.0822L6.14374 18.252L5.68436 19.8155L7.24791 19.3562C7.69895 19.2228 8.1677 19.3041 8.53957 19.5405C9.63158 20.232 10.8695 20.6599 12.1553 20.7906C13.4412 20.9212 14.7399 20.7509 15.9486 20.2932C17.1574 19.8355 18.2431 19.1029 19.12 18.1533C19.9968 17.2038 20.6408 16.0632 21.0009 14.8219C21.361 13.5806 21.4275 12.2725 21.195 11.0011C20.9626 9.72964 20.4375 8.52971 19.6614 7.49614C18.8853 6.46258 17.8795 5.6237 16.7233 5.04584C15.5672 4.46797 14.2925 4.16696 13 4.16659ZM10.701 10.201C10.8804 10.0216 11.119 9.91387 11.3722 9.89795C11.6253 9.88203 11.8756 9.95903 12.076 10.1145L12.1739 10.201L14.5625 12.5895L16.951 10.201C17.1385 10.0141 17.39 9.90567 17.6546 9.8976C17.9191 9.88952 18.1768 9.98243 18.3753 10.1575C18.5738 10.3325 18.6982 10.5765 18.7233 10.84C18.7484 11.1035 18.6723 11.3666 18.5104 11.576L18.4239 11.6739L15.2989 14.7989C15.1196 14.9782 14.8809 15.086 14.6278 15.1019C14.3746 15.1178 14.1244 15.0408 13.9239 14.8853L13.826 14.7989L11.4375 12.4103L9.04895 14.7989C8.86149 14.9857 8.60995 15.0942 8.34542 15.1022C8.08089 15.1103 7.8232 15.0174 7.6247 14.8424C7.42619 14.6673 7.30175 14.4233 7.27666 14.1598C7.25156 13.8964 7.32768 13.6332 7.48957 13.4239L7.57603 13.326L10.701 10.201Z" fill="#EDEDED"/>
</g>
<defs>
<clipPath id="clip0_791_660">
<rect width="25" height="25" fill="white" transform="translate(0.5)"/>
</clipPath>
</defs>
</svg>
