<svg width="60" height="60" viewBox="0 0 60 60" fill="none" xmlns="http://www.w3.org/2000/svg">
<g clip-path="url(#clip0_503_22)">
<path d="M30.0002 3.3335C24.726 3.3335 19.5703 4.89747 15.185 7.82764C10.7997 10.7578 7.38172 14.9226 5.36339 19.7953C3.34505 24.668 2.81696 30.0297 3.8459 35.2026C4.87484 40.3754 7.41459 45.1269 11.144 48.8563C14.8734 52.5857 19.6249 55.1255 24.7978 56.1544C29.9706 57.1834 35.3324 56.6553 40.2051 54.637C45.0778 52.6186 49.2425 49.2007 52.1727 44.8154C55.1029 40.4301 56.6668 35.2743 56.6668 30.0002C56.6668 22.9277 53.8573 16.145 48.8564 11.144C43.8554 6.14301 37.0726 3.3335 30.0002 3.3335ZM47.4168 21.0502L25.5168 42.9335L12.5835 30.0002C12.1415 29.5581 11.8932 28.9586 11.8932 28.3335C11.8932 27.7084 12.1415 27.1089 12.5835 26.6668C13.0255 26.2248 13.6251 25.9765 14.2502 25.9765C14.8753 25.9765 15.4748 26.2248 15.9168 26.6668L25.5502 36.3002L44.1168 17.7502C44.3357 17.5313 44.5956 17.3577 44.8815 17.2392C45.1675 17.1208 45.474 17.0598 45.7835 17.0598C46.093 17.0598 46.3995 17.1208 46.6855 17.2392C46.9715 17.3577 47.2313 17.5313 47.4502 17.7502C47.669 17.969 47.8427 18.2289 47.9611 18.5148C48.0796 18.8008 48.1405 19.1073 48.1405 19.4168C48.1405 19.7264 48.0796 20.0329 47.9611 20.3188C47.8427 20.6048 47.669 20.8646 47.4502 21.0835L47.4168 21.0502Z" fill="#6BCF62"/>
</g>
<defs>
<clipPath id="clip0_503_22">
<rect width="60" height="60" fill="white"/>
</clipPath>
</defs>
</svg>
