<svg width="26" height="25" viewBox="0 0 26 25" fill="none" xmlns="http://www.w3.org/2000/svg">
<path d="M13.0416 2.08331C7.35413 2.08331 2.71871 6.71873 2.71871 12.4062C2.71871 14.2291 3.19788 16 4.09371 17.5625L2.63538 22.9166L8.10413 21.4791C9.61454 22.3021 11.3125 22.7396 13.0416 22.7396C18.7291 22.7396 23.3645 18.1041 23.3645 12.4166C23.3645 9.65623 22.2916 7.06248 20.3437 5.11456C19.3887 4.1499 18.2512 3.38505 16.9975 2.86462C15.7438 2.34418 14.399 2.07859 13.0416 2.08331ZM13.052 3.8229C15.3437 3.8229 17.4895 4.71873 19.1145 6.34373C19.9121 7.14097 20.5443 8.08781 20.9751 9.12994C21.4059 10.1721 21.6268 11.289 21.625 12.4166C21.625 17.1458 17.7708 20.9896 13.0416 20.9896C11.5 20.9896 9.98954 20.5833 8.67704 19.7916L8.36454 19.6146L5.11454 20.4687L5.97913 17.3021L5.77079 16.9687C4.91031 15.6028 4.45518 14.0206 4.45829 12.4062C4.46871 7.67706 8.31246 3.8229 13.052 3.8229ZM9.38538 7.6354C9.21871 7.6354 8.93746 7.6979 8.69788 7.95831C8.46871 8.21873 7.79163 8.85415 7.79163 10.1146C7.79163 11.3854 8.71871 12.6041 8.83329 12.7812C8.97913 12.9583 10.6666 15.5625 13.2604 16.6666C13.875 16.9479 14.3541 17.1041 14.7291 17.2187C15.3437 17.4166 15.9062 17.3854 16.3541 17.3229C16.8541 17.25 17.875 16.6979 18.0937 16.0937C18.3125 15.4896 18.3125 14.9791 18.25 14.8646C18.177 14.7604 18.0104 14.6979 17.75 14.5833C17.4895 14.4375 16.2187 13.8125 15.9895 13.7291C15.75 13.6458 15.6041 13.6041 15.4062 13.8541C15.2395 14.1146 14.7395 14.6979 14.5937 14.8646C14.4375 15.0416 14.2916 15.0625 14.0416 14.9375C13.7708 14.8021 12.9375 14.5312 11.9583 13.6562C11.1875 12.9687 10.677 12.125 10.5208 11.8646C10.3958 11.6146 10.5104 11.4583 10.6354 11.3437C10.75 11.2291 10.9166 11.0416 11.0208 10.8854C11.1562 10.7396 11.1979 10.625 11.2812 10.4583C11.3645 10.2812 11.3229 10.1354 11.2604 10.0104C11.1979 9.89581 10.677 8.60415 10.4583 8.09373C10.25 7.59373 10.0416 7.65623 9.87496 7.64581C9.72913 7.64581 9.56246 7.6354 9.38538 7.6354Z" fill="#EDEDED"/>
</svg>
